<?xml version="1.0" encoding="utf-8"?>
<!-- Generator: Adobe Illustrator 16.0.0, SVG Export Plug-In . SVG Version: 6.00 Build 0)  -->
<!DOCTYPE svg PUBLIC "-//W3C//DTD SVG 1.1//EN" "http://www.w3.org/Graphics/SVG/1.1/DTD/svg11.dtd">
<svg version="1.1" id="Layer_1" xmlns="http://www.w3.org/2000/svg" xmlns:xlink="http://www.w3.org/1999/xlink" x="0px" y="0px"
	 width="281.6px" height="285px" viewBox="0 0 281.6 285" enable-background="new 0 0 281.6 285" xml:space="preserve">
<g>
	<defs>
		<rect id="SVGID_1_" width="281.6" height="285"/>
	</defs>
	<clipPath id="SVGID_2_">
		<use xlink:href="#SVGID_1_"  overflow="visible"/>
	</clipPath>
	<path clip-path="url(#SVGID_2_)" d="M278.1,235.5c-0.1-1.8-0.9-3.5-2.2-4.7L163.6,118.5c4.4-10.4,6.7-21.7,6.7-33.3
		c0-22.8-8.9-44.2-24.9-60.3C129.3,8.9,107.9,0,85.2,0C62.4,0,41,8.9,24.9,25c-33.2,33.2-33.3,87.3,0,120.5
		c16.1,16.1,37.5,25,60.2,25c11.6,0,22.9-2.3,33.3-6.8l36.9,36.9c1.5,1.5,3.6,2.3,5.7,2.2l20.1-0.7l-0.7,20.1
		c-0.1,2.1,0.7,4.2,2.2,5.7c1.5,1.5,3.6,2.3,5.7,2.2l20.2-0.7l-0.7,20.1c-0.1,2.1,0.8,4.2,2.2,5.7c1.5,1.5,3.3,2.3,5.7,2.3l20.1-0.7
		l-0.7,20.1c-0.1,2.2,0.8,4.4,2.4,5.9c1.5,1.3,3.3,2.1,5.2,2.1c0.3,0,0.6,0,0.8,0l30.9-3.4c4.2-0.5,7.2-4.2,6.8-8.4L278.1,235.5z
		 M74.9,74.9c-9.5,9.5-24.8,9.5-34.3,0c-9.5-9.5-9.5-24.8,0-34.2c9.5-9.5,24.8-9.5,34.3,0C84.3,50.1,84.3,65.5,74.9,74.9
		 M251.8,238.1c-1.1,1.1-2.6,1.7-4.1,1.7s-3-0.6-4.1-1.7l-95.5-95.5c2.7-2.9,5.1-5.9,7.3-9.1l96.4,96.4
		C254,232.2,254,235.8,251.8,238.1"/>
</g>
</svg>
