<?xml version="1.0" encoding="utf-8"?>
<!-- Generator: Adobe Illustrator 16.0.0, SVG Export Plug-In . SVG Version: 6.00 Build 0)  -->
<!DOCTYPE svg PUBLIC "-//W3C//DTD SVG 1.1//EN" "http://www.w3.org/Graphics/SVG/1.1/DTD/svg11.dtd">
<svg version="1.1" id="Layer_1" xmlns="http://www.w3.org/2000/svg" xmlns:xlink="http://www.w3.org/1999/xlink" x="0px" y="0px"
	 width="328.9px" height="438.5px" viewBox="0 0 328.9 438.5" enable-background="new 0 0 328.9 438.5" xml:space="preserve">
<g>
	<defs>
		<rect id="SVGID_1_" width="328.9" height="438.5"/>
	</defs>
	<clipPath id="SVGID_2_">
		<use xlink:href="#SVGID_1_"  overflow="visible"/>
	</clipPath>
	<path clip-path="url(#SVGID_2_)" d="M320.9,227.3c-5.3-5.3-11.8-8-19.4-8H91.4v-91.4c0-20.2,7.1-37.4,21.4-51.7
		C127,62,144.3,54.8,164.5,54.8c20.2,0,37.4,7.1,51.7,21.4c14.3,14.3,21.4,31.5,21.4,51.7c0,4.9,1.8,9.2,5.4,12.8
		c3.6,3.6,7.9,5.4,12.8,5.4h18.3c4.9,0,9.2-1.8,12.8-5.4c3.6-3.6,5.4-7.9,5.4-12.8c0-35.2-12.5-65.3-37.5-90.4
		c-25-25-55.2-37.5-90.4-37.5c-35.2,0-65.3,12.5-90.4,37.5c-25,25-37.5,55.1-37.5,90.4v91.4h-9.1c-7.6,0-14.1,2.7-19.4,8
		c-5.3,5.3-8,11.8-8,19.4v164.5c0,7.6,2.7,14.1,8,19.4c5.3,5.3,11.8,8,19.4,8h274.1c7.6,0,14.1-2.7,19.4-8c5.3-5.3,8-11.8,8-19.4
		V246.7C328.9,239.1,326.2,232.6,320.9,227.3"/>
</g>
</svg>
